<?xml version="1.0" encoding="UTF-8"?>
<svg id="Calque_1" xmlns="http://www.w3.org/2000/svg" viewBox="0 0 24 23.63">
  <defs>
    <style>
      .cls-1 {
        fill: #fff;
      }
    </style>
  </defs>
  <path class="cls-1" d="M12,0C5.37,0,0,5.37,0,12c0,5.62,3.87,10.33,9.09,11.63-.06-.16-.09-.35-.09-.58v-2.05h-1.51c-.82,0-1.55-.35-1.9-1.01-.39-.73-.46-1.84-1.43-2.53-.29-.23-.07-.49.26-.45.62.17,1.13.6,1.61,1.22.48.63.7.77,1.6.77.43,0,1.08-.02,1.69-.12.33-.83.89-1.6,1.59-1.96-4-.41-5.9-2.4-5.9-5.1,0-1.16.49-2.29,1.34-3.23-.28-.94-.62-2.86.11-3.59,1.8,0,2.89,1.17,3.15,1.48.9-.31,1.88-.48,2.91-.48s2.02.17,2.92.48c.26-.31,1.35-1.48,3.15-1.48.73.73.38,2.66.1,3.59.84.94,1.33,2.07,1.33,3.23,0,2.7-1.9,4.68-5.89,5.1,1.1.57,1.9,2.18,1.9,3.4v2.73c0,.1-.02.18-.03.27,4.68-1.64,8.03-6.08,8.03-11.31C24,5.37,18.63,0,12,0Z"/>
</svg>