<?xml version="1.0" encoding="UTF-8"?>
<svg id="Layer_1" data-name="Layer 1" xmlns="http://www.w3.org/2000/svg" viewBox="0 0 969.12 969.12">
  <defs>
    <style>
      .cls-1 {
        fill: #fff;
      }

      .cls-1, .cls-2 {
        fill-rule: evenodd;
      }

      .cls-3, .cls-2 {
        fill: #262626;
      }
    </style>
  </defs>
  <path class="cls-1" d="M484.56,969.12c266.89,0,484.57-217.68,484.57-484.57S751.44,0,484.56,0,0,217.68,0,484.56s217.67,484.57,484.56,484.57Z"/>
  <path class="cls-2" d="M194.67,262.45c0-37.85,30.67-68.52,68.52-68.52s68.51,30.67,68.51,68.52-30.67,68.52-68.51,68.52-68.52-30.68-68.52-68.52Z"/>
  <rect class="cls-3" x="203.45" y="388.65" width="119.48" height="386.52"/>
  <path class="cls-2" d="M759.79,465.11c-8.15-17.67-17.03-34.57-32.54-47.08-15.11-12.2-32.76-23.63-51.47-29.37-21.21-6.5-36.94-7.8-59.07-6.86-43.9,1.82-92.53,26.99-117.23,63.07v-56.21h-109.81v386.53h116.55v-207.44c0-2.19.55-37.24,26.35-60.5,32-28.83,125.02-30.47,125.02,57.69l-.29,210.25h117.13v-249.5c0-20.7-6.05-41.95-14.66-60.57Z"/>
</svg>