<?xml version="1.0" encoding="UTF-8"?>
<svg id="Calque_1" data-name="Calque 1" xmlns="http://www.w3.org/2000/svg" viewBox="0 0 417.86 197.96">
  <path d="M408.86,9v179.96H9v-52.74c0-33.98,13.23-65.93,37.26-89.95,24.03-24.03,55.97-37.26,89.95-37.26h272.64M417.86,0H136.22C60.99,0,0,60.99,0,136.22v61.74h417.86V0h0Z"/>
  <path d="M54.38,146.49c-12.99-41.58,238.46-124.53,297.47-124.53h34.84c5.34,0,8.43,2.46,8.43,6.7v8.49c0,4.24-3.09,6.7-8.43,6.7h-33.72c-42.15,0-175.73,33.94-200.83,75.55-15.06,24.97,97.88,33.98,155.14,35.89,13.27.44,26.43-.75,38.54-2.78,3.51-.55,6.52-1.45,9.08-2.68,6.85-3.18,8.41-8.11,9.1-13.86l4.42-36.5c0-4.24,3.09-6.7,8.43-6.7h12.36c5.34,0,8.43,2.46,8.43,6.7v67.02c0,4.24-3.09,6.7-8.43,6.7h-37.37c-59.29,0-284.26,15.57-297.47-26.71Z"/>
</svg>