<?xml version="1.0" encoding="UTF-8"?>
<svg id="Layer_1" xmlns="http://www.w3.org/2000/svg" viewBox="0 0 1571.45 1571.42">
  <defs>
    <style>
      .cls-1 {
        fill: #fff;
      }

      .cls-2 {
        fill: #262626;
      }
    </style>
  </defs>
  <path class="cls-1" d="M785.7,0C351.77,0,0,351.77,0,785.7s351.77,785.72,785.7,785.72,785.75-351.77,785.75-785.72S1219.63,0,785.7,0Z"/>
  <g>
    <path class="cls-2" d="M619.74,778.3c-100.41,84.1-196.38,164.57-301.64,252.71v-505.03c104.46,87.34,201.09,168.21,301.64,252.31Z"/>
    <path class="cls-2" d="M383.87,490h810.03c-10.11,12.13-257.43,223.6-372.4,321.72-22.78,19.54-38.82,23.05-63.21,2.16-120.76-102.97-369.57-315.25-374.42-323.88Z"/>
    <path class="cls-2" d="M908.58,819.27c100.28,83.97,201.5,168.75,312.96,262.15H351.26c111.33-93.13,212.14-177.64,311.88-261.2,4.45,1.75,6.33,2.16,7.82,3.1,39.76,28.44,79.11,78.31,119.55,79.12,37.2.81,75.61-51.08,118.07-83.16Z"/>
    <path class="cls-2" d="M1253.35,527.07v502.6c-102.84-86.26-199.48-167.26-299.75-251.36,100.68-84.38,196.64-164.84,299.75-251.23Z"/>
  </g>
</svg>